<svg xmlns="http://www.w3.org/2000/svg" viewBox="0 0 128 128" id="bitcoin"><path fill="#4d4d4d" d="M102.822 84.694H25.178c-11.42 0-20.678-9.258-20.678-20.678v-.032c0-11.42 9.258-20.678 20.678-20.678h77.644c11.42 0 20.678 9.258 20.678 20.678v.032c0 11.42-9.258 20.678-20.678 20.678z"></path><path fill="#f7931a" d="M117.841 67.13c-1.726 8.134-9.709 13.326-17.83 11.597s-13.306-9.724-11.58-17.857 9.709-13.326 17.83-11.597 13.306 9.724 11.58 17.857z"></path><path fill="#fff" d="M108.73 66.329a4.401 4.401 0 0 0-.994-1.368 6.446 6.446 0 0 0-1.034-.764c.321-.065.613-.189.925-.315.468-.189.839-.489 1.16-.843a3.09 3.09 0 0 0 .639-1.328c.123-.595.085-1.168-.171-1.669a3.155 3.155 0 0 0-.975-1.226 5.464 5.464 0 0 0-1.392-.817c-.285-.125-.606-.204-.908-.307l.561-2.643-1.327-.282-.183-.039-.56 2.638-1.552-.34.558-2.629-1.529-.325-.559 2.631-3.228-.684-.334 1.595.473.14c.13.044.326.12.565.21.219.093.378.195.559.314.135.084.184.139.167.162a.49.49 0 0 1-.001.289l-1.868 8.787c-.026.107-.058.173-.09.24-.017.023-.075.052-.217.072-.04.006-.182.025-.58-.022a4.574 4.574 0 0 1-.713-.086l-.482-.057-.334 1.595 3.315.713-.558 2.627 1.529.325.558-2.629 1.552.34-.556 2.619 1.529.325.554-2.642c.465.08.941.096 1.414.091a6.19 6.19 0 0 0 1.834-.298 3.917 3.917 0 0 0 1.565-.9c.458-.415.771-.975.924-1.657.049-.686.005-1.299-.236-1.843zm-4.341-7.197c1.001.232 1.659 1.255 1.448 2.254-.208 1.02-1.212 1.656-2.231 1.447l-1.826-.385.783-3.702 1.826.386zm-1.71 9.921-2.23-.473.932-4.404 2.23.473c1.212.264 1.996 1.455 1.732 2.669a2.231 2.231 0 0 1-2.664 1.735zM26.696 58.36c-.543-.496-1.207-.878-1.99-1.146-.785-.268-1.673-.402-2.664-.402a22.18 22.18 0 0 0-4.102.403l-3.237 13.452c.683.148 1.393.255 2.131.322.738.067 1.388.101 1.951.101 1.488 0 2.822-.201 4.002-.603 1.179-.402 2.182-.975 3.006-1.719s1.458-1.652 1.9-2.725c.442-1.072.664-2.285.664-3.639 0-.831-.141-1.588-.422-2.272a4.904 4.904 0 0 0-1.239-1.772zm-1.961 6.665c-.268.731-.647 1.347-1.136 1.85a4.876 4.876 0 0 1-1.79 1.156c-.704.269-1.491.402-2.363.402-.268 0-.479-.003-.633-.01a9.226 9.226 0 0 1-.453-.03l2.131-8.888c.416-.04.825-.06 1.227-.06.616 0 1.142.074 1.578.221.436.148.791.359 1.066.634.274.275.473.603.593.985s.181.808.181 1.277c.002.912-.132 1.733-.401 2.463zM38.74 61.275a3.406 3.406 0 0 0-1.307-.905c-.53-.214-1.143-.322-1.839-.322-.952 0-1.797.205-2.534.613a6.173 6.173 0 0 0-1.87 1.578 6.885 6.885 0 0 0-1.156 2.172 7.752 7.752 0 0 0-.393 2.413c0 .643.087 1.23.262 1.759.174.53.432.989.773 1.377.342.389.774.691 1.297.905.523.214 1.14.321 1.851.321.979 0 1.839-.205 2.584-.613a5.905 5.905 0 0 0 1.86-1.579 6.956 6.956 0 0 0 1.127-2.171 7.976 7.976 0 0 0 .382-2.413c0-.644-.087-1.23-.261-1.759a3.962 3.962 0 0 0-.776-1.376zm-2.111 4.756a4.758 4.758 0 0 1-.513 1.277c-.228.389-.51.711-.844.965a1.874 1.874 0 0 1-1.166.382c-.563 0-.952-.184-1.166-.553-.215-.368-.322-.895-.322-1.578 0-.415.057-.855.171-1.317.113-.463.284-.888.512-1.277.228-.389.51-.71.845-.965a1.878 1.878 0 0 1 1.166-.382c.563 0 .951.184 1.166.553.214.369.321.895.321 1.578 0 .415-.057.855-.17 1.317zM47.276 60.089c-.536 0-1.015.023-1.438.07a10.637 10.637 0 0 0-2.071.422 40.85 40.85 0 0 1-.754.231l-2.434 10.094h2.996l1.951-8.184c.402-.08.797-.121 1.186-.121.402 0 .7.077.894.231.195.155.319.355.372.603.053.248.057.536.01.865-.047.329-.11.667-.191 1.015l-1.327 5.59h2.996l1.367-5.711c.389-1.581.289-2.828-.301-3.74-.589-.909-1.675-1.365-3.256-1.365zM63.201 60.873a6.31 6.31 0 0 0-1.227-.442 10.1 10.1 0 0 0-1.226-.231 14.217 14.217 0 0 0-1.67-.111 6.312 6.312 0 0 0-4.634 1.96 6.665 6.665 0 0 0-1.368 2.142 6.957 6.957 0 0 0-.493 2.614c0 .603.067 1.17.201 1.699.133.53.352.992.653 1.387.302.395.691.71 1.167.945.476.235 1.048.352 1.719.352.563 0 1.072-.1 1.528-.302a5.33 5.33 0 0 0 1.247-.764c.067.188.133.355.201.503.067.148.142.302.222.463l2.675-.382a8.224 8.224 0 0 1-.463-2.061 6.66 6.66 0 0 1 .161-2.303l1.307-5.469zm-4.183 4.947a18.82 18.82 0 0 0-.19 1.016c-.061.369-.104.721-.131 1.055-.281.281-.546.483-.795.603s-.526.181-.834.181c-.577 0-.972-.187-1.186-.563-.215-.375-.322-.885-.322-1.528 0-.523.084-1.025.251-1.508.167-.483.399-.908.694-1.277a3.648 3.648 0 0 1 1.035-.895 2.513 2.513 0 0 1 1.278-.342 5.652 5.652 0 0 1 .985.08l-.785 3.178zM69.797 57.214l-3.117.482-1.971 8.325a10.44 10.44 0 0 0-.281 1.95c-.027.617.067 1.163.281 1.639.214.476.577.851 1.086 1.126.51.275 1.226.412 2.151.412.644 0 1.199-.054 1.669-.161.469-.107.905-.235 1.307-.382l-.222-2.292a6.903 6.903 0 0 1-.914.252c-.302.06-.613.091-.935.091-.375 0-.67-.053-.885-.161a.932.932 0 0 1-.453-.453c-.087-.194-.12-.425-.1-.693s.07-.556.151-.865l.885-3.7h3.317l.603-2.453h-3.338l.766-3.117zM81.871 61.768a2.613 2.613 0 0 0-.704-.935 3.19 3.19 0 0 0-1.056-.583 4.11 4.11 0 0 0-1.307-.201c-.952 0-1.819.191-2.604.573s-1.451.885-2.001 1.508a6.852 6.852 0 0 0-1.277 2.141 7.041 7.041 0 0 0-.453 2.493c0 .603.081 1.174.242 1.709.161.536.418 1.005.773 1.408.355.402.818.721 1.388.955.569.235 1.27.352 2.102.352.683 0 1.317-.06 1.9-.181a9.13 9.13 0 0 0 1.438-.402l-.222-2.353c-.389.148-.804.258-1.246.332s-.878.11-1.307.11c-.684 0-1.184-.117-1.498-.352-.315-.235-.52-.633-.613-1.197.966 0 1.857-.074 2.675-.221.818-.147 1.525-.385 2.121-.714a3.792 3.792 0 0 0 1.398-1.277c.335-.522.502-1.159.502-1.91 0-.467-.084-.886-.251-1.255zm-2.604 2.182c-.094.188-.281.362-.563.523-.281.161-.677.298-1.186.412-.51.114-1.18.184-2.011.211.16-.804.498-1.451 1.015-1.94.516-.489 1.116-.734 1.799-.734.724 0 1.086.321 1.086.965.001.188-.046.375-.14.563z"></path></svg>